<svg xmlns="http://www.w3.org/2000/svg" viewBox="0 0 64 64" width="64" height="64">
  <defs>
    <linearGradient id="bg" x1="0%" y1="0%" x2="100%" y2="100%">
      <stop offset="0%" style="stop-color:#2563eb;stop-opacity:1" />
      <stop offset="100%" style="stop-color:#7c3aed;stop-opacity:1" />
    </linearGradient>
    <linearGradient id="flask" x1="0%" y1="0%" x2="100%" y2="100%">
      <stop offset="0%" style="stop-color:#ffffff;stop-opacity:0.9" />
      <stop offset="100%" style="stop-color:#e5e7eb;stop-opacity:0.9" />
    </linearGradient>
  </defs>
  
  <!-- Background circle -->
  <circle cx="32" cy="32" r="30" fill="url(#bg)" stroke="#1d4ed8" stroke-width="2"/>
  
  <!-- Chemistry flask/beaker -->
  <g transform="translate(32,32)">
    <!-- Flask body -->
    <path d="M-8,-12 L-8,-6 L-12,8 L12,8 L8,-6 L8,-12 Z" fill="url(#flask)" stroke="#374151" stroke-width="1.5"/>
    
    <!-- Flask neck -->
    <rect x="-3" y="-18" width="6" height="8" fill="url(#flask)" stroke="#374151" stroke-width="1.5"/>
    
    <!-- Liquid inside -->
    <path d="M-6,-4 L-10,6 L10,6 L6,-4 Z" fill="#10b981" opacity="0.7"/>
    
    <!-- Bubbles -->
    <circle cx="-2" cy="0" r="1.5" fill="#ffffff" opacity="0.8"/>
    <circle cx="3" cy="-2" r="1" fill="#ffffff" opacity="0.6"/>
    <circle cx="0" cy="3" r="0.8" fill="#ffffff" opacity="0.9"/>
    
    <!-- Atom symbol overlay -->
    <g transform="translate(0,-8)" opacity="0.4">
      <circle cx="0" cy="0" r="1" fill="#ffffff"/>
      <ellipse cx="0" cy="0" rx="4" ry="1.5" fill="none" stroke="#ffffff" stroke-width="0.8"/>
      <ellipse cx="0" cy="0" rx="4" ry="1.5" fill="none" stroke="#ffffff" stroke-width="0.8" transform="rotate(60)"/>
      <ellipse cx="0" cy="0" rx="4" ry="1.5" fill="none" stroke="#ffffff" stroke-width="0.8" transform="rotate(120)"/>
    </g>
  </g>
</svg>